<?xml version="1.0" encoding="UTF-8" standalone="no"?>
<!-- Generator: Adobe Illustrator 19.0.0, SVG Export Plug-In . SVG Version: 6.00 Build 0)  -->

<svg
   version="1.1"
   id="Layer_1"
   x="0px"
   y="0px"
   viewBox="0 0 512 512"
   style="enable-background:new 0 0 512 512;"
   xml:space="preserve"
   xmlns="http://www.w3.org/2000/svg"
   xmlns:svg="http://www.w3.org/2000/svg"><defs
   id="defs53">
	
	
	
	

	
	
</defs>

















<g
   id="g868"
   transform="matrix(1.2550765,0,0,1.2550765,-67.31892,-43.243903)"><path
     style="font-variation-settings:normal;opacity:1;vector-effect:none;fill:#3c1146;fill-opacity:1;stroke-width:0.689251;stroke-linecap:butt;stroke-linejoin:miter;stroke-miterlimit:4;stroke-dasharray:none;stroke-dashoffset:0;stroke-opacity:1;-inkscape-stroke:none;stop-color:#000000;stop-opacity:1"
     d="m 137.56148,158.62791 c -19.2446,0 -34.90025,-15.65566 -34.90025,-34.90024 0,-19.24459 15.65565,-34.900247 34.90025,-34.900247 19.2432,0 34.89955,15.655657 34.89955,34.900247 0,19.24458 -15.65566,34.90024 -34.89955,34.90024 z m 0,-50.42839 c -8.56257,0 -15.52815,6.96558 -15.52815,15.52815 0,8.56256 6.96558,15.52814 15.52815,15.52814 8.56188,0 15.52676,-6.96558 15.52676,-15.52814 0,-8.56257 -6.96488,-15.52815 -15.52676,-15.52815 z"
     id="path6" /><path
     style="fill:#3c1146;stroke-width:0.689251"
     d="m 375.44618,158.33764 c -19.24459,0 -34.90023,-15.65566 -34.90023,-34.90024 0,-19.24459 15.65564,-34.900243 34.90023,-34.900243 19.24321,0 34.89955,15.655653 34.89955,34.900243 0,19.24458 -15.65566,34.90024 -34.89955,34.90024 z m 0,-50.42838 c -8.56257,0 -15.52814,6.96557 -15.52814,15.52814 0,8.56257 6.96557,15.52814 15.52814,15.52814 8.56188,0 15.52676,-6.96557 15.52676,-15.52814 0,-8.56257 -6.96488,-15.52814 -15.52676,-15.52814 z"
     id="path6-5" /><path
     style="fill:#3c1146;stroke-width:0.689251"
     d="m 317.39637,158.62791 c -19.24459,0 -34.90023,-15.65566 -34.90023,-34.90024 0,-19.24459 15.65564,-34.900247 34.90023,-34.900247 19.24321,0 34.89955,15.655657 34.89955,34.900247 0,19.24458 -15.65565,34.90024 -34.89955,34.90024 z m 0,-50.42839 c -8.56257,0 -15.52814,6.96558 -15.52814,15.52815 0,8.56256 6.96557,15.52814 15.52814,15.52814 8.56188,0 15.52676,-6.96558 15.52676,-15.52814 0,-8.56257 -6.96488,-15.52815 -15.52676,-15.52815 z"
     id="path6-5-2" /><path
     style="fill:#3c1146;stroke-width:0.689251"
     d="m 197.45665,158.62791 c -19.24459,0 -34.90024,-15.65566 -34.90024,-34.90024 0,-19.24459 15.65565,-34.900247 34.90024,-34.900247 19.24321,0 34.89955,15.655657 34.89955,34.900247 0,19.24458 -15.65565,34.90024 -34.89955,34.90024 z m 0,-50.42839 c -8.56257,0 -15.52814,6.96558 -15.52814,15.52815 0,8.56256 6.96557,15.52814 15.52814,15.52814 8.56188,0 15.52676,-6.96558 15.52676,-15.52814 0,-8.56257 -6.96488,-15.52815 -15.52676,-15.52815 z"
     id="path6-3" /><path
     style="fill:#3c1146;stroke-width:0.689251"
     d="m 257.36635,158.62791 c -19.24459,0 -34.90024,-15.65566 -34.90024,-34.90024 0,-19.24459 15.65565,-34.900247 34.90024,-34.900247 19.24321,0 34.89955,15.655657 34.89955,34.900247 0,19.24458 -15.65565,34.90024 -34.89955,34.90024 z m 0,-50.42839 c -8.56257,0 -15.52814,6.96558 -15.52814,15.52815 0,8.56256 6.96557,15.52814 15.52814,15.52814 8.56188,0 15.52676,-6.96558 15.52676,-15.52814 0,-8.56257 -6.96488,-15.52815 -15.52676,-15.52815 z"
     id="path6-56" /><path
     style="fill:#d4a8b4;stroke-width:0.970954"
     d="m 447.93619,202.50266 v 79.27643 c 0,10.68243 -4.37221,20.39682 -11.42133,27.43235 -7.03553,7.04913 -16.74798,11.42133 -27.43236,11.42133 -21.36681,0 -38.85271,-17.4859 -38.85271,-38.85271 v -36.46223 c -4.71301,16.14793 -19.68609,28.046 -37.30793,28.046 -17.62184,0 -32.58132,-11.89807 -37.29433,-28.046 v 14.39925 c 0,10.68243 -4.3722,20.39682 -11.40676,27.44595 -7.04913,7.03553 -16.76255,11.40676 -27.44595,11.40676 -21.37943,0 -38.85272,-17.48591 -38.85272,-38.85271 v -22.26883 c -2.3633,8.08708 -7.28118,15.09542 -13.81181,20.09486 -6.53064,4.98585 -14.68568,7.96473 -23.49806,7.96473 -14.09824,0 -26.48858,-7.60936 -33.30565,-18.92 v 35.19222 c 0,10.68243 -4.37221,20.39682 -11.42133,27.43235 -7.03553,7.04913 -16.74895,11.42133 -27.43236,11.42133 -21.366803,0 -40.216899,-17.4859 -40.216899,-38.85271 l 0.285461,-79.41236 c 0,-25.49142 19.69968,-46.36596 44.686208,-48.27874 14.7682,0 28.55186,0 28.55186,0 h 257.75812 c 26.75171,-0.003 48.41855,21.66489 48.41855,48.41273 z"
     id="path12" /><path
     style="fill:#3c1146;stroke-width:0.970954"
     d="m 409.08347,334.27661 c -28.94801,0 -52.49752,-23.54951 -52.49752,-52.49752 v -0.48257 c -7.1938,3.6673 -15.26922,5.71212 -23.66409,5.71212 -9.87848,0 -19.31324,-2.83227 -27.3906,-7.81132 -2.60895,6.50151 -6.5384,12.48064 -11.65145,17.60339 -9.96587,9.94548 -23.13685,15.41389 -37.10305,15.41389 -24.48746,0 -45.11343,-16.85284 -50.88672,-39.56927 -7.71519,4.27802 -16.32076,6.50733 -25.27295,6.50733 -6.81318,0 -13.48266,-1.36031 -19.66084,-3.88382 v 6.51025 c 0,13.98853 -5.48007,27.16049 -15.42749,37.08946 -9.91052,9.92994 -23.08151,15.40806 -37.07101,15.40806 -29.194637,0 -53.862688,-24.04081 -53.862688,-52.49752 l 0.285461,-79.46286 c 0,-32.19294 25.164208,-59.37479 57.288207,-61.83324 0.34664,-0.0272 0.69424,-0.0398 1.04281,-0.0398 h 286.30901 c 34.22029,0 62.06045,27.84015 62.06045,62.06045 v 79.2774 c 0,13.98853 -5.48006,27.16049 -15.42748,37.08946 -9.90956,9.928 -23.08152,15.40612 -37.07005,15.40612 z m -38.86242,-102.6065 c 0.64277,0 1.28943,0.0447 1.94191,0.13884 6.72191,0.96028 11.71455,6.71706 11.71455,13.50694 v 36.46223 c 0,13.90017 11.30773,25.2079 25.20791,25.2079 6.6889,0 13.00107,-2.63323 17.77233,-7.41518 4.80137,-4.79068 7.43362,-11.10285 7.43362,-17.79272 v -79.27741 c 0,-19.17245 -15.59934,-34.76985 -34.76985,-34.76985 H 113.77566 c -17.76262,1.60693 -31.605512,16.72759 -31.605512,34.63392 l -0.28546,79.46188 c 0,13.38072 12.416556,25.15839 26.572092,25.15839 6.6889,0 13.00107,-2.63323 17.77234,-7.41518 4.80136,-4.79068 7.43362,-11.10285 7.43362,-17.79272 v -35.19319 c 0,-6.12769 4.08577,-11.50581 9.98917,-13.14575 5.90243,-1.64382 12.1777,0.85444 15.34107,6.10342 4.57902,7.59868 12.86416,12.31849 21.62023,12.31849 5.53055,0 10.7902,-1.78656 15.21387,-5.1645 4.29453,-3.28668 7.49382,-7.93464 8.99589,-13.07778 1.90501,-6.51704 8.31621,-10.64554 15.03036,-9.68138 6.72191,0.96222 11.71261,6.719 11.71261,13.50694 v 22.26882 c 0,13.90018 11.30773,25.2079 25.20791,25.2079 6.68695,0 13.01175,-2.63517 17.80632,-7.42003 4.76641,-4.77612 7.40061,-11.09897 7.40061,-17.78787 v -14.39924 c 0,-6.78988 4.99264,-12.54667 11.71455,-13.50694 6.70929,-0.96221 13.12633,3.16725 15.03037,9.68526 3.13132,10.73001 13.08166,18.22383 24.19519,18.22383 11.12228,0 21.07844,-7.49382 24.21073,-18.22383 1.72053,-5.883 7.1103,-9.82119 13.08943,-9.82119 z"
     id="path14" /><g
     id="g4873"
     transform="matrix(0.97095373,0,0,0.97095373,9.52339,32.640127)"><path
       id="path8"
       style="fill:#3c1146"
       d="m 109.34961,110.88672 c -1.734,0 -3.34806,0.0606 -4.91406,0.18164 -33.085003,2.533 -59.001956,30.52837 -59.001956,63.73437 v 177.45704 c 0,7.761 6.292734,14.05273 14.052734,14.05273 l 392.041012,0.004 c 7.76,7e-5 14.05274,-6.29074 14.05274,-14.05274 0,-7.761 -6.29274,-14.05281 -14.05274,-14.05273 l -370.855339,0.004 c -4.555887,0 -7.130001,-2.24506 -7.130001,-7.56065 l 9.69e-4,-155.85148 c 1.16e-4,-18.606 14.512687,-34.29193 33.054691,-35.71093 0.85,-0.066 1.7509,-0.0996 2.7539,-0.0996 h 293.29688 c 19.527,0 34.82422,15.72954 34.82422,35.81054 v 75.10743 c 0,7.761 6.29273,14.05468 14.05273,14.05468 7.76,0 14.05273,-6.29268 14.05273,-14.05468 v -75.10743 c 10e-6,-35.84 -27.64168,-63.91601 -62.92968,-63.91601 z" /></g><g
     id="g20"
     transform="matrix(0.97095373,0,0,0.97095373,9.52339,-13.965652)">
</g><g
     id="g22"
     transform="matrix(0.97095373,0,0,0.97095373,9.52339,-13.965652)">
</g><g
     id="g24"
     transform="matrix(0.97095373,0,0,0.97095373,9.52339,-13.965652)">
</g><g
     id="g26"
     transform="matrix(0.97095373,0,0,0.97095373,9.52339,-13.965652)">
</g><g
     id="g28"
     transform="matrix(0.97095373,0,0,0.97095373,9.52339,-13.965652)">
</g><g
     id="g30"
     transform="matrix(0.97095373,0,0,0.97095373,9.52339,-13.965652)">
</g><g
     id="g32"
     transform="matrix(0.97095373,0,0,0.97095373,9.52339,-13.965652)">
</g><g
     id="g34"
     transform="matrix(0.97095373,0,0,0.97095373,9.52339,-13.965652)">
</g><g
     id="g36"
     transform="matrix(0.97095373,0,0,0.97095373,9.52339,-13.965652)">
</g><g
     id="g38"
     transform="matrix(0.97095373,0,0,0.97095373,9.52339,-13.965652)">
</g><g
     id="g40"
     transform="matrix(0.97095373,0,0,0.97095373,9.52339,-13.965652)">
</g><g
     id="g42"
     transform="matrix(0.97095373,0,0,0.97095373,9.52339,-13.965652)">
</g><g
     id="g44"
     transform="matrix(0.97095373,0,0,0.97095373,9.52339,-13.965652)">
</g><g
     id="g46"
     transform="matrix(0.97095373,0,0,0.97095373,9.52339,-13.965652)">
</g><g
     id="g48"
     transform="matrix(0.97095373,0,0,0.97095373,9.52339,-13.965652)">
</g></g>
</svg>
