<?xml version="1.0" encoding="iso-8859-1"?>
<!-- Generator: Adobe Illustrator 19.0.0, SVG Export Plug-In . SVG Version: 6.00 Build 0)  -->
<svg version="1.1" id="Layer_1" xmlns="http://www.w3.org/2000/svg" xmlns:xlink="http://www.w3.org/1999/xlink" x="0px" y="0px"
	 viewBox="0 0 512.001 512.001" style="enable-background:new 0 0 512.001 512.001;" xml:space="preserve">
<path style="fill:#3C1146;" d="M256.001,512.001C114.841,512.001,0,397.161,0,256.001S114.841,0.001,256.001,0.001
	s256.001,114.841,256.001,256.001c0,70.848-28.291,136.756-79.661,185.583c-5.699,5.417-14.711,5.188-20.127-0.511
	c-5.417-5.699-5.19-14.711,0.511-20.127c45.658-43.397,70.802-101.975,70.802-164.944
	C483.525,130.543,381.458,28.475,256.001,28.475S28.475,130.543,28.475,256.001s102.068,227.526,227.526,227.526
	c30.71,0,60.493-6.01,88.525-17.859c7.241-3.062,15.597,0.326,18.657,7.57c3.062,7.243-0.326,15.596-7.569,18.658
	C324.054,505.237,290.539,512.001,256.001,512.001z"/>
<path style="fill:#D4A8B4;" d="M394.509,326.58c7.196-14.146,1.3-32.672,3.713-48.037c2.437-15.512,13.689-31.336,11.252-46.85
	c-2.413-15.366-17.921-26.96-25.118-41.106c-6.951-13.665-7.03-33.086-18.444-44.5c-11.413-11.413-30.835-11.492-44.499-18.445
	c-14.146-7.196-25.74-22.703-41.105-25.118c-15.513-2.437-31.336,8.814-46.85,11.252c-15.366,2.413-33.892-3.482-48.038,3.713
	c-13.665,6.951-19.868,25.236-31.282,36.65c-11.413,11.413-29.698,17.616-36.65,31.281c-7.196,14.146-1.3,32.672-3.713,48.037
	c-2.437,15.512-13.689,31.336-11.252,46.849c2.413,15.366,17.921,26.96,25.118,41.106c6.951,13.665,7.03,33.086,18.445,44.5
	c11.413,11.413,30.835,11.492,44.499,18.443c14.146,7.196,25.74,22.703,41.105,25.118c15.512,2.437,31.336-8.814,46.849-11.252
	c15.366-2.413,33.892,3.482,48.038-3.713c13.665-6.951,19.868-25.236,31.282-36.65C369.273,346.447,387.558,340.244,394.509,326.58z
	 M256.001,310.441c-15.033,15.033-39.408,15.033-54.441,0c-15.033-15.033-15.033-39.408,0-54.441
	c-15.033-15.033-15.033-39.408,0-54.441c15.033-15.033,39.408-15.033,54.441,0c15.033-15.033,39.408-15.033,54.441,0
	c15.033,15.033,15.033,39.408,0,54.441c15.033,15.033,15.033,39.408,0,54.441C295.407,325.474,271.034,325.474,256.001,310.441z"/>
<path style="fill:#3C1146;" d="M236.199,424.056c-2.279,0-4.54-0.174-6.719-0.515c-13.063-2.052-23.094-10.023-31.946-17.055
	c-4.705-3.74-9.15-7.271-13.406-9.436c-3.944-2.006-9.217-3.438-14.801-4.953c-11.064-3.003-23.603-6.407-33.31-16.114
	c-9.706-9.706-13.11-22.246-16.112-33.31c-1.516-5.584-2.947-10.857-4.953-14.801c-2.166-4.257-5.696-8.702-9.437-13.409
	c-7.032-8.85-15.002-18.88-17.055-31.943c-2.067-13.162,2.453-25.183,6.442-35.788c2.1-5.584,4.085-10.859,4.809-15.48
	c0.71-4.515,0.439-10.073,0.151-15.957c-0.555-11.387-1.183-24.293,4.938-36.325c5.907-11.613,16.513-18.638,25.869-24.837
	c5.096-3.376,9.909-6.563,13.403-10.056c3.492-3.492,6.682-8.306,10.056-13.403c6.199-9.357,13.224-19.962,24.837-25.869
	c9.185-4.673,18.657-5.272,25.881-5.272c3.568,0,7.065,0.171,10.445,0.335c3.152,0.154,6.131,0.299,8.952,0.299
	c2.785,0,5.076-0.148,7.005-0.45c4.62-0.726,9.895-2.709,15.48-4.809c8.671-3.262,18.5-6.958,29.07-6.958
	c2.279,0,4.54,0.174,6.719,0.515c13.063,2.052,23.094,10.023,31.946,17.055c4.705,3.74,9.15,7.271,13.406,9.437
	c3.944,2.006,9.217,3.438,14.801,4.953c11.064,3.003,23.603,6.407,33.31,16.114c9.706,9.706,13.11,22.246,16.112,33.31
	c1.515,5.584,2.947,10.857,4.953,14.801c2.165,4.257,5.696,8.702,9.437,13.409c7.032,8.85,15.002,18.88,17.055,31.943
	c2.067,13.162-2.453,25.183-6.442,35.788c-2.1,5.584-4.085,10.859-4.809,15.48c-0.71,4.515-0.439,10.073-0.151,15.957
	c0.555,11.387,1.183,24.293-4.938,36.325c-5.907,11.613-16.512,18.638-25.869,24.837c-5.096,3.376-9.909,6.563-13.403,10.056
	c-3.492,3.494-6.682,8.306-10.057,13.403c-6.198,9.357-13.222,19.962-24.836,25.869c-9.185,4.671-18.654,5.272-25.878,5.272
	c-0.001,0-0.001,0-0.004,0c-3.568,0-7.063-0.171-10.443-0.335c-3.154-0.154-6.132-0.299-8.954-0.299
	c-2.785,0-5.076,0.148-7.005,0.45c-4.62,0.726-9.895,2.709-15.48,4.809C256.599,420.359,246.771,424.056,236.199,424.056z
	 M204.847,128.005c-6.011,0-10.012,0.672-12.97,2.177c-4.928,2.507-9.338,9.166-14.008,16.215
	c-4.004,6.045-8.144,12.295-13.661,17.814c-5.517,5.517-11.767,9.657-17.812,13.661c-7.05,4.67-13.708,9.081-16.215,14.008
	c-2.691,5.289-2.295,13.42-1.875,22.028c0.345,7.06,0.7,14.361-0.463,21.763c-1.177,7.497-3.776,14.404-6.289,21.084
	c-3.017,8.023-5.867,15.6-4.965,21.346c0.887,5.645,5.906,11.961,11.219,18.648c4.452,5.604,9.058,11.398,12.523,18.212
	c3.337,6.561,5.227,13.521,7.055,20.253c2.274,8.376,4.421,16.288,8.767,20.634c4.347,4.347,12.258,6.495,20.634,8.767
	c6.731,1.827,13.692,3.716,20.254,7.055c6.813,3.467,12.606,8.07,18.211,12.522c6.687,5.313,13.003,10.332,18.65,11.219
	c0.722,0.114,1.495,0.171,2.299,0.171c5.393,0,12.025-2.494,19.047-5.135c6.679-2.511,13.585-5.11,21.084-6.287
	c3.407-0.535,7.143-0.796,11.424-0.796c3.517,0,6.985,0.169,10.339,0.332c3.179,0.155,6.183,0.302,9.058,0.302h0.001
	c6.01,0,10.009-0.672,12.969-2.177c4.928-2.507,9.338-9.166,14.007-16.215c4.005-6.045,8.145-12.295,13.662-17.814
	c5.517-5.517,11.767-9.657,17.812-13.661c7.05-4.67,13.708-9.081,16.215-14.008c2.691-5.289,2.295-13.42,1.875-22.028
	c-0.345-7.06-0.701-14.361,0.463-21.763c1.177-7.497,3.776-14.404,6.289-21.084c3.017-8.023,5.867-15.6,4.965-21.346
	c-0.887-5.645-5.906-11.961-11.219-18.648c-4.452-5.604-9.058-11.398-12.523-18.212c-3.337-6.561-5.227-13.521-7.055-20.253
	c-2.274-8.377-4.421-16.288-8.769-20.634c-4.345-4.347-12.257-6.495-20.633-8.767c-6.731-1.827-13.692-3.716-20.254-7.055
	c-6.813-3.467-12.606-8.07-18.211-12.522c-6.687-5.313-13.003-10.332-18.65-11.219c-0.722-0.114-1.495-0.171-2.299-0.171
	c-5.393,0-12.025,2.494-19.047,5.135c-6.679,2.511-13.585,5.11-21.084,6.287c-3.407,0.535-7.143,0.796-11.424,0.796
	c-3.515,0-6.985-0.169-10.339-0.332C210.727,128.151,207.723,128.005,204.847,128.005z M283.22,335.954
	c-9.745,0-19.089-2.627-27.22-7.544c-8.131,4.918-17.474,7.544-27.22,7.544c-14.086,0-27.329-5.486-37.288-15.445
	c-9.959-9.959-15.445-23.203-15.445-37.288c0-9.745,2.627-19.089,7.544-27.22c-4.918-8.131-7.544-17.474-7.544-27.22
	c0-14.086,5.486-27.329,15.445-37.288s23.203-15.445,37.288-15.445c9.745,0,19.089,2.627,27.22,7.544
	c8.131-4.918,17.474-7.544,27.22-7.544c14.086,0,27.329,5.486,37.288,15.445c9.959,9.959,15.445,23.203,15.445,37.288
	c0,9.745-2.627,19.089-7.544,27.22c4.918,8.131,7.544,17.474,7.544,27.22c0,14.086-5.486,27.329-15.445,37.288
	C310.548,330.469,297.306,335.954,283.22,335.954z M256.001,296.203c3.643,0,7.288,1.39,10.067,4.17
	c4.582,4.582,10.674,7.106,17.152,7.106c6.479,0,12.572-2.523,17.153-7.106c4.582-4.582,7.106-10.674,7.106-17.153
	c0-6.479-2.523-12.572-7.106-17.152c-5.56-5.56-5.56-14.575,0-20.136c4.582-4.582,7.106-10.674,7.106-17.152
	c0-6.479-2.523-12.572-7.106-17.153c-4.582-4.582-10.674-7.106-17.153-7.106s-12.572,2.523-17.152,7.106
	c-5.56,5.56-14.575,5.56-20.136,0c-4.582-4.582-10.674-7.106-17.152-7.106c-6.479,0-12.572,2.523-17.153,7.106
	c-4.582,4.582-7.106,10.674-7.106,17.153c0,6.479,2.523,12.572,7.106,17.152c5.56,5.56,5.56,14.575,0,20.136
	c-4.582,4.582-7.106,10.674-7.106,17.152c0,6.479,2.523,12.572,7.106,17.153c4.582,4.582,10.674,7.106,17.153,7.106
	c6.479,0,12.572-2.523,17.152-7.106C248.713,297.593,252.357,296.203,256.001,296.203z"/>
<g>
</g>
<g>
</g>
<g>
</g>
<g>
</g>
<g>
</g>
<g>
</g>
<g>
</g>
<g>
</g>
<g>
</g>
<g>
</g>
<g>
</g>
<g>
</g>
<g>
</g>
<g>
</g>
<g>
</g>
</svg>
