<?xml version="1.0" encoding="UTF-8" standalone="no"?>
<!-- Created with Inkscape (http://www.inkscape.org/) -->

<svg
   width="130.96875mm"
   height="130.96875mm"
   viewBox="0 0 130.96875 130.96875"
   version="1.1"
   id="svg5"
   xmlns="http://www.w3.org/2000/svg"
   xmlns:svg="http://www.w3.org/2000/svg">
  <defs
     id="defs2" />
  <g
     id="layer1"
     transform="translate(-49.43706,-75.709786)">
    <path
       style="fill:#000000;stroke-width:0.264583"
       d="M 63.327684,206.67853 H 49.43706 v -13.89062 -13.89063 h 13.890624 13.890624 v 13.89063 13.89062 z m 0,-3.96875 h 9.921874 v -9.92187 -9.92188 h -9.921874 -9.921875 v 9.92188 9.92187 z m 0,-3.96875 h -5.953125 v -5.95312 -5.95313 h 5.953125 5.953125 v 5.95313 5.95312 z m 25.796874,7.9375 h -3.96875 v -9.92187 -9.92188 h -1.984375 -1.984375 v -1.98437 -1.98438 h 1.984375 1.984375 v 1.98438 1.98437 h 1.984375 1.984375 v -1.98437 -1.98438 h 1.984375 1.984374 v -1.98437 -1.98438 h -5.953124 -5.953125 v -1.98437 -1.98438 h -3.96875 -3.96875 v -1.98437 -1.98438 h -1.984375 -1.984374 v 1.98438 1.98437 H 59.358934 49.43706 v -9.92187 -9.92188 h 3.968749 3.96875 v -1.98437 -1.98438 h 1.984375 1.984375 v -1.98437 -1.98438 h -1.984375 -1.984375 v -1.98437 -1.98438 h 1.984375 1.984375 v -3.96875 -3.96875 h -1.984375 -1.984375 v 1.98438 1.98437 h -1.984375 -1.984375 v -1.98437 -1.98438 H 51.421434 49.43706 v -7.9375 -7.93749 h 1.984374 1.984375 v -1.98438 -1.98437 h 1.984375 1.984375 v -1.98438 -1.98437 h 5.953125 5.953125 v -1.98438 -1.98437 h 3.968749 3.96875 v 1.98437 1.98438 h 1.984375 1.984375 v 1.98437 1.98438 h 3.96875 3.96875 v -1.98438 -1.98437 h 1.984375 1.984374 v -3.96875 -3.96875 h -1.984374 -1.984375 v 1.98437 1.98438 h -3.96875 -3.96875 v -3.96875 -3.968754 h 1.984375 1.984375 v 1.984374 1.98438 h 1.984375 1.984375 v -3.968754 -3.96875 h 3.968749 3.968751 v -7.9375 -7.9375 h -1.984376 -1.984375 v -1.98437 -1.98438 h 1.984375 1.984376 v 1.98438 1.98437 h 3.968752 3.96875 v -1.98437 -1.98438 h 1.98438 1.98437 v 1.98438 1.98437 h 3.96875 3.96875 v 3.96875 3.96875 h -1.98437 -1.98438 v -1.98437 -1.98438 h -1.98437 -1.98438 v 3.96875 3.96875 h -3.96875 -3.96875 v 1.98438 1.98437 h 1.98437 1.98438 v 1.98437 1.98438 h 1.98438 1.98437 v 7.937504 7.9375 h 1.98438 1.98437 v -1.98438 -1.98437 h 1.98438 1.98437 v 1.98437 1.98438 h 1.98438 1.98437 v -3.96875 -3.96875 h -3.96875 -3.96875 v -3.96875 -3.968754 h 1.98438 1.98437 v -1.98438 -1.98437 h 1.98438 1.98437 v -9.92187 -9.92188 h 1.98438 1.98437 v 1.98438 1.98437 h 1.98438 1.98437 v 1.98438 1.98437 h -1.98437 -1.98438 v 1.98438 1.98437 h 1.98438 1.98437 v 1.98438 1.98437 h 1.98438 1.98437 v -3.96875 -3.96875 h 1.98438 1.98437 v -1.98437 -1.98438 h -1.98437 -1.98438 v -1.98437 -1.98438 h 3.96875 3.96875 v 3.96875 3.96875 h 1.98437 1.98438 v -3.96875 -3.96875 h 1.98437 1.98438 v 9.92188 9.92187 h -1.98438 -1.98437 v -1.98437 -1.98438 h -1.98438 -1.98437 v 1.98438 1.98437 h -1.98437 -1.98438 v 1.98437 1.98438 h 1.98438 1.98437 v 5.953124 5.95313 h 1.98437 1.98438 v -1.98438 -1.98437 h 1.98437 1.98438 v 1.98437 1.98438 h 1.98437 1.98438 v -1.98438 -1.98437 h 1.98437 1.98438 v 1.98437 1.98438 h 1.98437 1.98438 v -1.98438 -1.98437 h 1.98437 1.98438 v 1.98437 1.98438 h 1.98437 1.98438 v -1.98438 -1.98437 h 1.98437 1.98438 v 3.96875 3.96875 h 1.98437 1.98438 v 1.98437 1.98438 h 1.98437 1.98438 v 5.95312 5.95312 h -1.98438 -1.98437 v 1.98438 1.98437 h 1.98437 1.98438 v 1.98438 1.98437 h -1.98438 -1.98437 v -1.98437 -1.98438 h -1.98438 -1.98437 v 1.98438 1.98437 h -3.96875 -3.96875 v 1.98438 1.98437 h -1.98438 -1.98437 v 1.98438 1.98437 h 5.95312 5.95313 v 3.96875 3.96875 h -1.98438 -1.98437 v 3.96875 3.96875 h 1.98437 1.98438 v -1.98437 -1.98438 h 1.98437 1.98438 v 3.96875 3.96875 h 1.98437 1.98438 v 5.95313 5.95312 h -1.98438 -1.98437 v 3.96875 3.96875 h 1.98437 1.98438 v 5.95313 5.95312 h -3.96875 -3.96875 v 1.98438 1.98437 h 1.98437 1.98438 v 1.98438 1.98437 h -1.98438 -1.98437 v -1.98437 -1.98438 h -3.96875 -3.96875 v -1.98437 -1.98438 h -1.98438 -1.98437 v -1.98437 -1.98438 h -1.98438 -1.98437 v -1.98437 -1.98438 h -1.98438 -1.98437 v 1.98438 1.98437 h -1.98438 -1.98437 v 1.98438 1.98437 h -3.96875 -3.96875 v 1.98438 1.98437 h 3.96875 3.96875 v 1.98438 1.98437 h -3.96875 -3.96875 v -1.98437 -1.98438 h -1.98437 -1.98438 v 1.98438 1.98437 h -1.98437 -1.98438 v -1.98437 -1.98438 h -3.96875 -3.96875 v -7.9375 -7.9375 h -3.96875 -3.96875 v -3.96875 -3.96875 h -1.98437 -1.98438 v -1.98437 -1.98438 h -3.96875 -3.96875 v 1.98438 1.98437 h -1.98438 -1.98437 v 1.98438 1.98437 h 1.98437 1.98438 v 1.98438 1.98437 h -3.96875 -3.968752 v 7.9375 7.9375 h -1.984376 -1.984375 v 1.98438 1.98437 z m 1.984375,-3.96875 h 1.984374 v -5.95312 -5.95313 h -1.984374 -1.984375 v 5.95313 5.95312 z m 43.656257,0 h 1.98437 v -1.98437 -1.98438 h 1.98438 1.98437 v -1.98437 -1.98438 h 3.96875 3.96875 v -1.98437 -1.98438 h -1.98438 -1.98437 v -3.96875 -3.96875 h -1.98438 -1.98437 v -1.98437 -1.98438 h 1.98437 1.98438 v -1.98437 -1.98438 h -1.98438 -1.98437 v -1.98437 -1.98438 h 11.90625 11.90625 v -1.98437 -1.98438 h 1.98437 1.98438 v -1.98437 -1.98438 h -5.95313 -5.95312 v -1.98437 -1.98438 h 1.98437 1.98438 v -1.98437 -1.98438 h 1.98437 1.98438 v -1.98437 -1.98438 h -1.98438 -1.98437 v 1.98438 1.98437 h -3.96875 -3.96875 v -1.98437 -1.98438 h 1.98437 1.98438 v -1.98437 -1.98438 h -5.95313 -5.95312 v 1.98438 1.98437 h 1.98437 1.98438 v 1.98438 1.98437 h 1.98437 1.98438 v 1.98438 1.98437 h -3.96875 -3.96875 v -1.98437 -1.98438 h -1.98438 -1.98437 v -1.98437 -1.98438 h -1.98437 -1.98438 v -1.98437 -1.98438 h 1.98438 1.98437 v -1.98437 -1.98438 h 3.96875 3.96875 v -5.95312 -5.95313 h 1.98437 1.98438 v 1.98438 1.98437 h 1.98437 1.98438 v -1.98437 -1.98438 h 1.98437 1.98438 v 1.98438 1.98437 h 1.98437 1.98438 v -9.92187 -9.92187 h -1.98438 -1.98437 v 5.95312 5.95312 h -1.98438 -1.98437 v 1.98438 1.98437 h -1.98438 -1.98437 v -3.96875 -3.96875 h 1.98437 1.98438 v -5.95312 -5.95312 h -1.98438 -1.98437 v 5.95312 5.95312 h -1.98438 -1.98437 v -1.98437 -1.98437 h -1.98438 -1.98437 v -1.98438 -1.98437 h 1.98437 1.98438 v -1.98438 -1.98437 h -1.98438 -1.98437 v 1.98437 1.98438 h -1.98438 -1.98437 v 1.98437 1.98438 h -1.98437 -1.98438 v -1.98438 -1.98437 h -1.98437 -1.98438 v -1.98438 -1.98437 h 1.98438 1.98437 v -5.95313 -5.953124 h -1.98437 -1.98438 v 3.968754 3.96875 h -1.98437 -1.98438 v 5.95312 5.95313 h -1.98437 -1.98438 v 1.98437 1.98437 h 1.98438 1.98437 v 1.98438 1.98437 h -3.96875 -3.96875 v 1.98438 1.98437 h -1.98437 -1.98438 v -1.98437 -1.98438 h -1.98437 -1.98438 v -1.98437 -1.98438 h -1.98437 -1.98438 v -3.96874 -3.96875 h -1.98437 -1.98438 v -1.98438 -1.98437 h -5.953132 -5.953121 v 3.96875 3.96875 h -1.984374 -1.984375 v 1.98437 1.98437 h -1.984375 -1.984375 v -1.98437 -1.98437 H 73.249558 61.343309 v -1.98438 -1.98437 h -1.984375 -1.984375 v 1.98437 1.98438 h 1.984375 1.984375 v 1.98437 1.98437 h 1.984375 1.984375 v 1.98438 1.98437 h 1.984375 1.984375 v 1.98438 1.98437 h -3.96875 -3.96875 v 1.98438 1.98437 h 5.953125 5.953124 v 1.98438 1.98437 h -1.984375 -1.984374 v 3.96875 3.96875 h 3.968749 3.96875 v 1.98438 1.98437 h -1.984375 -1.984375 v 1.98438 1.98437 h -3.968749 -3.96875 v -1.98437 -1.98438 h -1.984375 -1.984375 v 5.95313 5.95312 h -1.984375 -1.984375 v -1.98437 -1.98438 h -1.984375 -1.984375 v 5.95313 5.95312 h 1.984375 1.984375 v -1.98437 -1.98438 h 1.984375 1.984375 v 1.98438 1.98437 h 3.96875 3.96875 v -1.98437 -1.98438 h -1.984375 -1.984375 v -1.98437 -1.98438 h 5.953124 5.953125 v -1.98437 -1.98438 h 1.984375 1.984375 v 1.98438 1.98437 h 3.96875 3.96875 v 3.96875 3.96875 h -1.984375 -1.984375 v -1.98437 -1.98438 h -1.984375 -1.984375 v 1.98438 1.98437 h 1.984375 1.984375 v 1.98438 1.98437 h 3.96875 3.968749 v 1.98438 1.98437 h 3.968751 3.968752 v -1.98437 -1.98438 h 1.98437 1.98438 v -3.96875 -3.96875 h -3.96875 -3.968752 v -7.9375 -7.9375 h -1.984376 -1.984375 v -1.98437 -1.98438 h -1.984374 -1.984375 v -1.98437 -1.98438 h 1.984375 1.984374 v -3.96875 -3.96875 h 1.984375 1.984376 v 5.95313 5.95312 h 1.98437 1.984382 v 7.9375 7.9375 h 1.98437 1.98438 v -1.98437 -1.98438 h 1.98438 1.98437 v 5.95313 5.95312 h 1.98438 1.98437 v 1.98438 1.98437 h 1.98438 1.98437 v 1.98438 1.98437 h 1.98438 1.98437 v 1.98438 1.98437 h 1.98438 1.98437 v 1.98438 1.98437 h 1.98438 1.98437 v 3.96875 3.96875 h 3.96875 3.96875 v 1.98438 1.98437 h -1.98437 -1.98438 v 1.98438 1.98437 z m 3.96875,-7.9375 h -1.98438 v -1.98437 -1.98438 h -1.98437 -1.98438 v -1.98437 -1.98438 h 1.98438 1.98437 v 1.98438 1.98437 h 1.98438 1.98437 v 1.98438 1.98437 z m -3.96875,-11.90625 h -1.98438 v -1.98437 -1.98438 h -3.96875 -3.96875 v -3.96875 -3.96875 h -5.95312 -5.95313 v -3.96875 -3.96875 h 3.96875 3.96875 v -3.96875 -3.96875 h -1.98437 -1.98438 v -3.96875 -3.96875 h 7.9375 7.9375 v 1.98438 1.98437 h -1.98437 -1.98438 v 1.98438 1.98437 h -1.98437 -1.98438 v 3.96875 3.96875 h 1.98438 1.98437 v 1.98438 1.98437 h -1.98437 -1.98438 v 1.98438 1.98437 h 3.96875 3.96875 v 3.96875 3.96875 h 1.98438 1.98437 v -1.98437 -1.98438 h 1.98438 1.98437 v 1.98438 1.98437 h -1.98437 -1.98438 v 1.98438 1.98437 z m 3.96875,-11.90625 h -1.98438 v -1.98437 -1.98438 h -1.98437 -1.98438 v -3.96875 -3.96875 h 1.98438 1.98437 v -1.98437 -1.98438 h 1.98438 1.98437 v 1.98438 1.98437 h 1.98437 1.98438 v 1.98438 1.98437 h 1.98437 1.98438 v 1.98438 1.98437 h -1.98438 -1.98437 v -1.98437 -1.98438 h -1.98438 -1.98437 v -1.98437 -1.98438 h -1.98437 -1.98438 v 3.96875 3.96875 h 1.98438 1.98437 v 1.98438 1.98437 z m -47.625007,-7.9375 h -1.984375 v -1.98437 -1.98438 h 1.984375 1.984374 v 1.98438 1.98437 z m -15.875,-3.96875 h -1.984375 v -1.98437 -1.98438 h 1.984375 1.984375 v -1.98437 -1.98438 h 1.984375 1.984375 v -1.98437 -1.98438 h -1.984375 -1.984375 v -1.98437 -1.98438 h -1.984375 -1.984375 v -1.98437 -1.98438 h 1.984375 1.984375 v -1.98437 -1.98438 h -1.984375 -1.984375 v -1.98437 -1.98438 h 1.984375 1.984375 v -1.98437 -1.98438 h -1.984375 -1.984375 v -1.98437 -1.98438 h 5.953125 5.953125 v 1.98438 1.98437 h 1.984375 1.984375 v -1.98437 -1.98438 h 5.953124 5.953128 v 3.96875 3.96875 h -3.968752 -3.968751 v -1.98437 -1.98438 h -1.984374 -1.984375 v 1.98438 1.98437 h -1.984375 -1.984375 v 1.98438 1.98437 h 1.984375 1.984375 v 1.98438 1.98437 h -1.984375 -1.984375 v 1.98438 1.98437 h -1.984375 -1.984375 v 1.98438 1.98437 h 3.96875 3.96875 v 1.98438 1.98437 h 1.984375 1.984374 v 1.98438 1.98437 h -1.984374 -1.984375 v -1.98437 -1.98438 h -3.96875 -3.96875 v 1.98438 1.98437 h 1.984375 1.984375 v 1.98438 1.98437 h -1.984375 -1.984375 v -1.98437 -1.98438 h -1.984375 -1.984375 v 1.98438 1.98437 z m 7.9375,-19.84375 h 1.984375 v -1.98437 -1.98438 h -1.984375 -1.984375 v -1.98437 -1.98438 h -1.984375 -1.984375 v 1.98438 1.98437 h 1.984375 1.984375 v 1.98438 1.98437 z m 25.796877,15.875 h -3.96875 v -3.96875 -3.96875 h -1.98438 -1.98437 v -1.98437 -1.98438 h 1.98437 1.98438 v -1.98437 -1.98438 h -1.98438 -1.98437 v -1.98437 -1.98438 h 1.98437 1.98438 v -5.95312 -5.95313 h 1.98438 1.98437 v 5.95313 5.95312 h 1.98438 1.98437 v 1.98438 1.98437 h -1.98437 -1.98438 v 1.98438 1.98437 h -1.98437 -1.98438 v 1.98438 1.98437 h 1.98438 1.98437 v 1.98438 1.98437 h 1.98438 1.98437 v 1.98438 1.98437 z m -1.98437,-15.875 h 1.98437 v -1.98437 -1.98438 h -1.98437 -1.98438 v 1.98438 1.98437 z m 23.8125,3.96875 h -1.98438 v -7.9375 -7.9375 h 1.98438 1.98437 v -3.96875 -3.96874 h 1.98438 1.98437 v 5.95312 5.95312 h 1.98438 1.98437 v -1.98437 -1.98438 h 1.98437 1.98438 v -1.98437 -1.98438 h -1.98438 -1.98437 v -1.98437 -1.98437 h 1.98437 1.98438 v 1.98437 1.98437 h 1.98437 1.98438 v 1.98438 1.98437 h -1.98438 -1.98437 v 1.98438 1.98437 h -1.98438 -1.98437 v 1.98438 1.98437 h -1.98437 -1.98438 v -1.98437 -1.98438 h -1.98437 -1.98438 v 5.95313 5.95312 z m -7.9375,-3.96875 h -1.98438 v -1.98437 -1.98438 h 1.98438 1.98437 v 1.98438 1.98437 z m -19.84376,-19.84374 h -1.98437 v -1.98438 -1.98437 h 1.98437 1.98438 v 1.98437 1.98438 z m 69.45313,75.40624 h 3.96875 v -1.98437 -1.98438 h -1.98438 -1.98437 v -1.98437 -1.98438 h -3.96875 -3.96875 v 1.98438 1.98437 h 1.98437 1.98438 v 1.98438 1.98437 z m -17.85938,-7.9375 h 5.95313 v -5.95312 -5.95313 h -5.95313 -5.95312 v 5.95313 5.95312 z m 0,-3.96875 h -1.98437 v -1.98437 -1.98438 h 1.98437 1.98438 v 1.98438 1.98437 z m 13.89063,0 h 3.96875 v -1.98437 -1.98438 h 1.98437 1.98438 v -3.96875 -3.96875 h -3.96875 -3.96875 v 3.96875 3.96875 h -1.98438 -1.98437 v 1.98438 1.98437 z M 75.233933,170.95978 h 1.984375 v -1.98437 -1.98438 h -1.984375 -1.984375 v 1.98438 1.98437 z m -11.906249,-23.8125 h 1.984375 v -1.98437 -1.98438 h -1.984375 -1.984375 v 1.98438 1.98437 z m 91.281246,-3.96875 h 1.98438 v -1.98437 -1.98438 h -1.98438 -1.98437 v 1.98438 1.98437 z m 15.875,-7.9375 h 1.98438 v -1.98437 -1.98438 h 1.98437 1.98438 v -1.98437 -1.98438 h -1.98438 -1.98437 v -1.98437 -1.98438 h 1.98437 1.98438 v -1.98437 -1.98437 h -1.98438 -1.98437 v 1.98437 1.98437 h -1.98438 -1.98437 v 5.95313 5.95312 z m -55.56249,-15.87499 h 1.98437 v -1.98438 -1.98437 h -1.98437 -1.98438 v 1.98437 1.98438 z m -41.671882,-3.96875 h 3.96875 v -1.98438 -1.98437 h -3.96875 -3.968749 v 1.98437 1.98438 z m 29.765622,-7.9375 h 1.98438 v -3.96875 -3.968754 h -1.98438 -1.98437 v -1.98438 -1.98437 h -1.984382 -1.98437 v 1.98437 1.98438 h -1.984376 -1.984375 v 1.984374 1.98438 h 1.984375 1.984376 v -1.98438 -1.984374 h 1.98437 1.984382 v 3.968754 3.96875 z m 15.87501,-3.96875 h 1.98437 v -1.98438 -1.984374 h 1.98438 1.98437 v 1.984374 1.98438 h 1.98438 1.98437 v -1.98438 -1.984374 h -1.98437 -1.98438 v -1.98438 -1.98437 h -1.98437 -1.98438 v 1.98437 1.98438 h -1.98437 -1.98438 v 1.984374 1.98438 z m 19.84375,-11.906254 h 1.98437 v -1.98437 -1.98438 h -1.98437 -1.98438 v 1.98438 1.98437 z m -31.75,-7.9375 h 1.98437 v -1.98437 -1.98438 h -1.98437 -1.98438 v 1.98438 1.98437 z m -3.96876,123.031244 h -1.98437 v -1.98437 -1.98438 h 1.98437 1.98438 v 1.98438 1.98437 z m 13.89063,0 h -3.96875 v -1.98437 -1.98438 h -1.98437 -1.98438 v -5.95312 -5.95313 h 5.95313 5.95312 v 7.9375 7.9375 z m -1.98437,-3.96875 h 1.98437 v -1.98437 -1.98438 h -1.98437 -1.98438 v 1.98438 1.98437 z m 39.68749,3.96875 h -1.98437 v -1.98437 -1.98438 h 1.98437 1.98438 v 1.98438 1.98437 z m -43.65624,-19.84375 h -1.98438 v -1.98437 -1.98438 h 1.98438 1.98437 v 1.98438 1.98437 z m 67.46874,-35.71875 h -1.98437 v -3.96875 -3.96875 h 1.98437 1.98438 v 3.96875 3.96875 z M 51.421434,147.14728 H 49.43706 v -1.98437 -1.98438 h 1.984374 1.984375 v 1.98438 1.98437 z M 178.42143,111.42854 h -1.98437 v -1.98438 -1.98437 h 1.98437 1.98438 v 1.98437 1.98438 z M 63.327684,103.49104 H 49.43706 V 89.600416 75.709786 h 13.890624 13.890624 v 13.89063 13.890624 z m 0,-3.968754 h 9.921874 v -9.92187 -9.92188 h -9.921874 -9.921875 v 9.92188 9.92187 z m 0,-3.96875 h -5.953125 v -5.95312 -5.95313 h 5.953125 5.953125 v 5.95313 5.95312 z m 83.343746,7.937504 h -1.98437 v -1.98438 -1.984374 h 1.98437 1.98438 v 1.984374 1.98438 z m 19.84375,0 H 152.62456 V 89.600416 75.709786 h 13.89062 13.89063 v 13.89063 13.890624 z m 0,-3.968754 h 9.92188 v -9.92187 -9.92188 h -9.92188 -9.92187 v 9.92188 9.92187 z m 0,-3.96875 h -5.95312 v -5.95312 -5.95313 h 5.95312 5.95313 v 5.95313 5.95312 z m -83.343747,0 h -1.984375 v -1.98437 -1.98438 h 1.984375 1.984375 v -1.98437 -1.98438 h -1.984375 -1.984375 v -1.98437 -1.98438 h 1.984375 1.984375 v -1.98437 -1.98438 h -1.984375 -1.984375 v -1.98437 -1.98438 h 1.984375 1.984375 v 1.98438 1.98437 h 1.984375 1.984375 v 3.96875 3.96875 h 1.984375 1.984374 v 1.98438 1.98437 h -3.968749 -3.96875 v 1.98438 1.98437 z"
       id="path892" />
  </g>
</svg>
