<?xml version="1.0" encoding="iso-8859-1"?>
<!-- Generator: Adobe Illustrator 19.0.0, SVG Export Plug-In . SVG Version: 6.00 Build 0)  -->
<svg version="1.1" id="Layer_1" xmlns="http://www.w3.org/2000/svg" xmlns:xlink="http://www.w3.org/1999/xlink" x="0px" y="0px"
	 viewBox="0 0 512 512" style="enable-background:new 0 0 512 512;" xml:space="preserve">
<g>
	<path style="fill:#3C1146;" d="M189.902,467.046H52.977c-14.83,0-29.077-6.274-39.088-17.215
		C3.882,438.896-1.106,424.158,0.206,409.396l22.451-253.754c1.715-19.547,17.819-34.294,37.457-34.294
		c7.758,0,14.049,6.291,14.049,14.049c0,7.758-6.291,14.049-14.049,14.049c-4.964,0-9.034,3.723-9.466,8.66l-22.452,253.77
		c-0.624,7.034,1.656,13.775,6.423,18.985c4.771,5.214,11.29,8.085,18.358,8.085h136.925c7.068,0,13.589-2.872,18.358-8.085
		c4.767-5.21,7.049-11.95,6.422-18.979l-16.929-191.332c-0.683-7.729,5.027-14.548,12.757-15.232
		c7.71-0.68,14.548,5.027,15.232,12.757l16.929,191.322c1.312,14.757-3.674,29.495-13.681,40.431
		C218.981,460.77,204.733,467.046,189.902,467.046z"/>
	<path style="fill:#3C1146;" d="M189.867,149.978H53.012c-7.758,0-14.049-6.291-14.049-14.049v-8.498
		c0-45.478,36.999-82.477,82.477-82.477s82.477,36.999,82.477,82.477v8.498C203.916,143.688,197.625,149.978,189.867,149.978z
		 M67.343,121.879h108.194c-2.789-27.386-25.987-48.827-54.097-48.827S70.131,94.493,67.343,121.879z"/>
</g>
<polygon style="fill:#D4A8B4;" points="224.997,369.08 17.882,369.08 31.13,219.314 211.749,219.314 "/>
<g>
	<path style="fill:#3C1146;" d="M225.024,383.13c-0.006,0.001-0.017,0.001-0.028,0H17.882c-3.942,0-7.7-1.656-10.363-4.563
		c-2.662-2.907-3.979-6.798-3.632-10.724l13.249-149.767c0.641-7.251,6.714-12.812,13.995-12.812h180.62
		c7.28,0,13.354,5.561,13.995,12.812l13.167,148.854c0.108,0.701,0.163,1.419,0.163,2.15
		C239.073,376.84,232.785,383.13,225.024,383.13z M33.229,355.031h176.42l-10.762-121.669H43.991L33.229,355.031z"/>
	<path style="fill:#3C1146;" d="M131.551,317.959c0-13.978-36.621-11.553-36.621-38.586c0-17.328,15.133-23.913,29.575-23.913
		c6.121,0,22.989,1.155,22.989,10.166c0,3.12-2.079,9.473-7.164,9.473c-4.159,0-6.353-4.39-15.827-4.39
		c-8.203,0-11.554,3.351-11.554,6.932c0,11.554,36.622,9.358,36.622,38.471c0,16.636-12.132,25.647-28.883,25.647
		c-15.134,0-27.842-7.394-27.842-15.017c0-3.928,3.466-9.704,7.856-9.704c5.429,0,8.895,8.549,19.64,8.549
		C125.66,325.585,131.551,323.504,131.551,317.959z"/>
	<path style="fill:#3C1146;" d="M459.023,467.046H322.098c-14.83,0-29.078-6.276-39.088-17.216
		c-10.007-10.936-14.993-25.674-13.681-40.435l22.449-253.752c1.717-19.547,17.822-34.293,37.457-34.293
		c7.758,0,14.049,6.291,14.049,14.049c0,7.758-6.291,14.049-14.049,14.049c-4.964,0-9.034,3.723-9.466,8.661l-22.451,253.769
		c-0.625,7.034,1.656,13.775,6.422,18.985c4.771,5.214,11.29,8.085,18.358,8.085h136.925c7.068,0,13.589-2.872,18.358-8.085
		c4.768-5.21,7.049-11.95,6.423-18.981l-16.929-191.331c-0.683-7.729,5.027-14.548,12.757-15.232
		c7.698-0.68,14.547,5.027,15.232,12.757l16.929,191.322c1.312,14.759-3.675,29.497-13.683,40.433
		C488.099,460.772,473.853,467.046,459.023,467.046z"/>
	<path style="fill:#3C1146;" d="M458.989,149.978H322.134c-7.758,0-14.049-6.291-14.049-14.049v-8.498
		c0-45.478,36.999-82.477,82.477-82.477s82.477,36.999,82.477,82.477v8.498C473.038,143.688,466.747,149.978,458.989,149.978z
		 M336.465,121.879h108.194c-2.79-27.386-25.988-48.827-54.097-48.827C362.453,73.052,339.254,94.493,336.465,121.879z"/>
</g>
<polygon style="fill:#D4A8B4;" points="494.118,369.08 287.003,369.08 300.251,219.314 480.869,219.314 "/>
<g>
	<path style="fill:#3C1146;" d="M494.146,383.13c-0.006,0.001-0.017,0.001-0.028,0H287.003c-3.942,0-7.7-1.656-10.363-4.563
		c-2.662-2.907-3.979-6.798-3.632-10.724l13.249-149.767c0.641-7.251,6.714-12.812,13.995-12.812h180.62
		c7.28,0,13.354,5.561,13.995,12.812l13.167,148.854c0.108,0.701,0.163,1.419,0.163,2.15
		C508.195,376.84,501.906,383.13,494.146,383.13z M302.35,355.031h176.42l-10.762-121.669H313.113L302.35,355.031z"/>
	<path style="fill:#3C1146;" d="M366.013,261.582c0-2.889,2.658-5.429,6.702-5.429h23.913c15.249,0,27.264,7.162,27.264,26.57v0.577
		c0,19.408-12.477,26.802-28.42,26.802h-11.438v24.954c0,3.698-4.506,5.545-9.011,5.545c-4.506,0-9.011-1.848-9.011-5.545v-73.475
		H366.013z M384.036,271.863v24.377h11.438c6.468,0,10.397-3.696,10.397-11.553v-1.271c0-7.855-3.928-11.553-10.397-11.553
		L384.036,271.863L384.036,271.863z"/>
</g>
<g>
</g>
<g>
</g>
<g>
</g>
<g>
</g>
<g>
</g>
<g>
</g>
<g>
</g>
<g>
</g>
<g>
</g>
<g>
</g>
<g>
</g>
<g>
</g>
<g>
</g>
<g>
</g>
<g>
</g>
</svg>
