<?xml version="1.0" encoding="iso-8859-1"?>
<!-- Generator: Adobe Illustrator 19.0.0, SVG Export Plug-In . SVG Version: 6.00 Build 0)  -->
<svg version="1.1" id="Layer_1" xmlns="http://www.w3.org/2000/svg" xmlns:xlink="http://www.w3.org/1999/xlink" x="0px" y="0px"
	 viewBox="0 0 512 512" style="enable-background:new 0 0 512 512;" xml:space="preserve">
<g>
	<path style="fill:#3C1146;" d="M328.3,512H183.699c-28.517,0-52.185-21.336-55.154-49.669l-10.071-75.528
		c-1.029-7.718,4.393-14.81,12.112-15.837c7.708-1.029,14.808,4.392,15.837,12.112l10.099,75.738
		c0.021,0.149,0.038,0.302,0.054,0.453c1.404,13.988,13.066,24.535,27.121,24.535h144.601c14.057,0,25.717-10.547,27.121-24.535
		c0.016-0.151,0.032-0.303,0.054-0.453l2.132-15.984c1.028-7.719,8.132-13.14,15.837-12.112c7.719,1.028,13.142,8.121,12.112,15.837
		l-2.104,15.774C380.483,490.665,356.815,512,328.3,512z"/>
	<path style="fill:#3C1146;" d="M379.043,398.97H357.61c-7.785,0-14.099-6.314-14.099-14.099c0-7.785,6.314-14.099,14.099-14.099
		h21.433c9.181,0,16.65-7.47,16.65-16.651s-7.468-16.65-16.65-16.65H132.955c-9.181,0-16.65,7.468-16.65,16.65
		s7.468,16.651,16.65,16.651h163.95c7.785,0,14.099,6.314,14.099,14.099c0,7.785-6.314,14.099-14.099,14.099h-163.95
		c-24.728,0-44.848-20.119-44.848-44.849c0-24.728,20.119-44.848,44.848-44.848h246.088c24.728,0,44.848,20.119,44.848,44.848
		C423.89,378.85,403.772,398.97,379.043,398.97z"/>
</g>
<path style="fill:#D4A8B4;" d="M378.282,87.27c-3.53,0-6.995,0.281-10.38,0.802c0.572-3.426,0.885-6.94,0.885-10.528
	c0-35.04-28.405-63.446-63.446-63.446c-19.935,0-37.712,9.2-49.344,23.579c-11.632-14.378-29.409-23.579-49.342-23.579
	c-35.04,0-63.446,28.405-63.446,63.446c0,3.588,0.313,7.102,0.885,10.528c-3.385-0.522-6.849-0.802-10.38-0.802
	c-37.374,0-67.672,30.297-67.672,67.671c0,37.375,30.297,67.672,67.672,67.672c25.291,0,47.325-13.883,58.939-34.434
	c15.823,16.932,38.339,27.528,63.343,27.528s47.519-10.598,63.343-27.528c11.615,20.551,33.65,34.434,58.94,34.434
	c37.374,0,67.672-30.297,67.672-67.672C445.953,117.567,415.656,87.27,378.282,87.27z"/>
<g>
	<path style="fill:#3C1146;" d="M378.282,236.713c-23.607,0-45.839-10.257-61.194-27.565
		c-17.446,13.271-38.965,20.659-61.088,20.659s-43.642-7.388-61.088-20.659c-15.357,17.307-37.587,27.565-61.194,27.565
		c-45.087,0-81.77-36.683-81.77-81.771c0-43.583,34.27-79.311,77.281-81.649C131.442,32.505,165.325,0,206.655,0
		c18.248,0,35.576,6.326,49.344,17.718C269.766,6.326,287.094,0,305.342,0c41.33,0,75.214,32.505,77.429,73.291
		c43.01,2.338,77.281,38.066,77.281,81.649C460.052,200.03,423.369,236.713,378.282,236.713z M319.341,174.081
		c0.556,0,1.112,0.032,1.669,0.099c4.458,0.532,8.397,3.154,10.607,7.062c9.507,16.823,27.389,27.273,46.665,27.273
		c29.54,0,53.572-24.033,53.572-53.573c0-29.539-24.032-53.572-53.572-53.572c-2.717,0-5.486,0.214-8.232,0.637
		c-4.471,0.697-9.002-0.809-12.182-4.027c-3.178-3.22-4.619-7.77-3.873-12.232c0.461-2.752,0.694-5.511,0.694-8.201
		c0-27.21-22.137-49.347-49.347-49.347c-14.959,0-28.95,6.687-38.383,18.347c-2.676,3.31-6.706,5.232-10.961,5.232
		s-8.285-1.922-10.961-5.232c-9.434-11.661-23.423-18.348-38.383-18.348c-27.21,0-49.347,22.137-49.347,49.347
		c0,2.69,0.233,5.449,0.694,8.201c0.746,4.462-0.695,9.012-3.873,12.232c-3.179,3.217-7.711,4.725-12.182,4.027
		c-2.746-0.423-5.516-0.637-8.232-0.637c-29.54,0-53.572,24.033-53.572,53.572c0,29.54,24.032,53.573,53.572,53.573
		c19.276,0,37.157-10.45,46.665-27.273c2.209-3.907,6.149-6.531,10.607-7.062c4.444-0.53,8.902,1.09,11.967,4.374
		c13.896,14.869,32.735,23.058,53.043,23.058s39.147-8.189,53.043-23.058C311.725,175.681,315.463,174.081,319.341,174.081z"/>
	<path style="fill:#3C1146;" d="M255.999,330.147c-7.785,0-14.099-6.314-14.099-14.099v-100.34c0-7.785,6.314-14.099,14.099-14.099
		c7.785,0,14.099,6.314,14.099,14.099v100.34C270.098,323.835,263.785,330.147,255.999,330.147z"/>
</g>
<g>
</g>
<g>
</g>
<g>
</g>
<g>
</g>
<g>
</g>
<g>
</g>
<g>
</g>
<g>
</g>
<g>
</g>
<g>
</g>
<g>
</g>
<g>
</g>
<g>
</g>
<g>
</g>
<g>
</g>
</svg>
