<?xml version="1.0" encoding="iso-8859-1"?>
<!-- Generator: Adobe Illustrator 19.0.0, SVG Export Plug-In . SVG Version: 6.00 Build 0)  -->
<svg version="1.1" id="Layer_1" xmlns="http://www.w3.org/2000/svg" xmlns:xlink="http://www.w3.org/1999/xlink" x="0px" y="0px"
	 viewBox="0 0 512 512" style="enable-background:new 0 0 512 512;" xml:space="preserve">
<path style="fill:#D4A8B4;" d="M302.12,82.03c0,37.164-46.119,67.291-46.119,67.291s-46.119-30.128-46.119-67.291
	s46.119-67.291,46.119-67.291S302.12,44.867,302.12,82.03z"/>
<g>
	<path style="fill:#3C1146;" d="M256.001,164.059c-2.805,0-5.613-0.799-8.061-2.399c-2.156-1.409-52.797-35.003-52.797-79.629
		S245.784,3.809,247.94,2.4c4.896-3.2,11.224-3.2,16.121,0c2.156,1.409,52.797,35.003,52.797,79.631s-50.641,78.222-52.797,79.629
		C261.612,163.26,258.806,164.059,256.001,164.059z M255.94,33.127c-12.911,10.557-31.321,29.793-31.321,48.903
		c0,19.132,18.454,38.393,31.38,48.949c12.926-10.556,31.38-29.815,31.38-48.949C287.381,61.757,267.471,42.548,255.94,33.127z"/>
	<path style="fill:#3C1146;" d="M333.99,280.285c-15.944,0-28.091-2.463-29.199-2.696c-7.966-1.671-13.07-9.484-11.399-17.451
		c1.671-7.965,9.479-13.07,17.451-11.399c12.846,2.644,49.936,5.841,66.745-10.969c13.532-13.53,14.098-40.199,12.423-56.803
		c-16.587-1.671-43.266-1.108-56.8,12.425c-5.757,5.755-15.087,5.757-20.845,0c-5.755-5.755-5.755-15.088,0-20.844
		c31.556-31.559,91.118-19.502,93.64-18.975c5.726,1.201,10.199,5.674,11.399,11.399c0.528,2.519,12.584,62.084-18.973,93.64
		C380.754,276.29,354.291,280.283,333.99,280.285z"/>
	<path style="fill:#3C1146;" d="M178.011,280.285c-20.303,0-46.765-3.991-64.442-21.669c-31.557-31.557-19.501-91.121-18.973-93.64
		c1.2-5.726,5.674-10.198,11.399-11.399c2.519-0.529,62.086-12.583,93.64,18.975c5.755,5.755,5.755,15.088,0,20.844
		c-5.758,5.755-15.088,5.757-20.845,0c-14.335-14.335-41.992-13.838-56.811-12.348c-1.664,16.594-1.08,43.214,12.434,56.727
		c20.077,20.079,66.286,11.066,66.745,10.969c7.971-1.671,15.779,3.433,17.451,11.399c1.671,7.966-3.433,15.779-11.399,17.451
		C206.101,277.822,193.954,280.283,178.011,280.285z"/>
</g>
<path style="fill:#D4A8B4;" d="M388.009,405.846c-26.279,26.279-80.194,14.97-80.194,14.97s-11.308-53.914,14.97-80.192
	c26.278-26.278,80.192-14.97,80.192-14.97S414.288,379.567,388.009,405.846z"/>
<path style="fill:#3C1146;" d="M334.351,437.975c-16.342,0-29.028-2.622-29.56-2.733c-5.726-1.201-10.199-5.674-11.399-11.399
	c-0.528-2.52-12.584-62.084,18.973-93.641c14.201-14.201,36.359-21.707,64.081-21.707c16.342,0,29.028,2.622,29.56,2.733
	c5.726,1.201,10.199,5.674,11.399,11.399c0.528,2.52,12.584,62.084-18.973,93.641C384.23,430.468,362.07,437.975,334.351,437.975z
	 M320.781,407.797c3.81,0.386,8.478,0.7,13.57,0.7c13.76,0,32.431-2.268,43.236-13.073c13.517-13.515,14.096-40.144,12.429-56.752
	c-3.81-0.386-8.478-0.7-13.57-0.7c-13.762,0-32.431,2.268-43.236,13.073C319.692,364.561,319.112,391.19,320.781,407.797z"/>
<path style="fill:#D4A8B4;" d="M123.992,405.846c26.279,26.279,80.192,14.97,80.192,14.97s11.308-53.914-14.97-80.192
	c-26.278-26.278-80.192-14.97-80.192-14.97S97.712,379.567,123.992,405.846z"/>
<g>
	<path style="fill:#3C1146;" d="M177.653,437.975c-0.001,0-0.001,0-0.003,0c-27.722,0-49.88-7.506-64.081-21.707
		c-31.557-31.557-19.501-91.121-18.973-93.641c1.2-5.726,5.674-10.198,11.399-11.399c0.531-0.112,13.218-2.733,29.56-2.733
		c27.722,0,49.88,7.506,64.081,21.707c31.557,31.556,19.501,91.12,18.973,93.64c-1.2,5.725-5.674,10.198-11.398,11.399
		C206.679,435.353,193.993,437.975,177.653,437.975z M121.984,338.672c-1.668,16.593-1.091,43.232,12.431,56.75
		c10.804,10.805,29.476,13.073,43.236,13.073c0.001,0,0.003,0,0.003,0c5.091,0,9.757-0.314,13.569-0.7
		c1.668-16.593,1.091-43.232-12.431-56.752c-10.805-10.805-29.475-13.073-43.236-13.073
		C130.463,337.972,125.796,338.286,121.984,338.672z"/>
	<path style="fill:#3C1146;" d="M256.001,512c-8.139,0-14.739-6.599-14.739-14.739V278.995c0-8.14,6.6-14.739,14.739-14.739
		c8.139,0,14.739,6.599,14.739,14.739v218.267C270.74,505.402,264.14,512,256.001,512z"/>
	<path style="fill:#3C1146;" d="M256.001,242.141c-8.139,0-14.739-6.599-14.739-14.739V199.36c0-8.14,6.6-14.739,14.739-14.739
		c8.139,0,14.739,6.599,14.739,14.739v28.042C270.74,235.542,264.14,242.141,256.001,242.141z"/>
</g>
<g>
</g>
<g>
</g>
<g>
</g>
<g>
</g>
<g>
</g>
<g>
</g>
<g>
</g>
<g>
</g>
<g>
</g>
<g>
</g>
<g>
</g>
<g>
</g>
<g>
</g>
<g>
</g>
<g>
</g>
</svg>
