<?xml version="1.0" encoding="UTF-8" standalone="no"?>
<!-- Generator: Adobe Illustrator 19.0.0, SVG Export Plug-In . SVG Version: 6.00 Build 0)  -->

<svg
   version="1.1"
   id="Layer_1"
   x="0px"
   y="0px"
   viewBox="0 0 600 600"
   xml:space="preserve"
   sodipodi:docname="birthday-cake-svgrepo-com.svg"
   width="600"
   height="600"
   inkscape:version="1.1.2 (0a00cf5339, 2022-02-04)"
   xmlns:inkscape="http://www.inkscape.org/namespaces/inkscape"
   xmlns:sodipodi="http://sodipodi.sourceforge.net/DTD/sodipodi-0.dtd"
   xmlns="http://www.w3.org/2000/svg"
   xmlns:svg="http://www.w3.org/2000/svg"><defs
   id="defs53" /><sodipodi:namedview
   id="namedview51"
   pagecolor="#ffffff"
   bordercolor="#666666"
   borderopacity="1.0"
   inkscape:pageshadow="2"
   inkscape:pageopacity="0.0"
   inkscape:pagecheckerboard="0"
   showgrid="false"
   width="600px"
   inkscape:zoom="0.70996094"
   inkscape:cx="-153.52957"
   inkscape:cy="397.90922"
   inkscape:window-width="3440"
   inkscape:window-height="1380"
   inkscape:window-x="0"
   inkscape:window-y="32"
   inkscape:window-maximized="1"
   inkscape:current-layer="layer2" />



<g
   id="g20">
</g>
<g
   id="g22">
</g>
<g
   id="g24">
</g>
<g
   id="g26">
</g>
<g
   id="g28">
</g>
<g
   id="g30">
</g>
<g
   id="g32">
</g>
<g
   id="g34">
</g>
<g
   id="g36">
</g>
<g
   id="g38">
</g>
<g
   id="g40">
</g>
<g
   id="g42">
</g>
<g
   id="g44">
</g>
<g
   id="g46">
</g>
<g
   id="g48">
</g>
<g
   inkscape:groupmode="layer"
   id="layer2"
   inkscape:label="Layer 2"><rect
     style="fill:#ffffff;fill-opacity:1;stroke-width:2.95829;stroke-linecap:round;paint-order:stroke markers fill;stop-color:#000000"
     id="rect77"
     width="600"
     height="600"
     x="0"
     y="0"
     rx="63.766575" /></g><g
   inkscape:groupmode="layer"
   id="layer1"
   inkscape:label="Layer 1"><g
     id="g10"
     transform="translate(45.589793,47.319717)"><path
       style="fill:#3c1146"
       d="m 256,125.627 c -27.919,0 -50.634,-22.714 -50.634,-50.635 0,-27.921 22.715,-50.635 50.634,-50.635 27.919,0 50.634,22.714 50.634,50.635 0,27.921 -22.715,50.635 -50.634,50.635 z m 0,-73.164 c -12.422,0 -22.527,10.106 -22.527,22.529 0,12.423 10.105,22.529 22.527,22.529 12.422,0 22.527,-10.106 22.527,-22.529 0,-12.423 -10.105,-22.529 -22.527,-22.529 z"
       id="path2" /><path
       style="fill:#3c1146"
       d="m 334.791,143.919 c -27.919,0 -50.634,-22.714 -50.634,-50.635 0,-27.921 22.714,-50.635 50.634,-50.635 27.921,0 50.635,22.714 50.635,50.635 0,27.921 -22.713,50.635 -50.635,50.635 z m 0,-73.164 c -12.422,0 -22.527,10.106 -22.527,22.529 0,12.423 10.106,22.529 22.527,22.529 12.423,0 22.529,-10.106 22.529,-22.529 0,-12.423 -10.106,-22.529 -22.529,-22.529 z"
       id="path4" /><path
       style="fill:#3c1146"
       d="m 177.209,143.919 c -27.921,0 -50.635,-22.714 -50.635,-50.635 0,-27.921 22.714,-50.635 50.635,-50.635 27.919,0 50.634,22.714 50.634,50.635 0,27.921 -22.714,50.635 -50.634,50.635 z m 0,-73.164 c -12.423,0 -22.529,10.106 -22.529,22.529 0,12.423 10.106,22.529 22.529,22.529 12.422,0 22.527,-10.106 22.527,-22.529 0,-12.423 -10.105,-22.529 -22.527,-22.529 z"
       id="path6" /><path
       style="fill:#3c1146"
       d="m 59.487,363.508 c -7.76,0 -14.053,-6.292 -14.053,-14.053 V 174.803 c 0,-33.206 25.917,-61.202 59.002,-63.735 1.566,-0.121 3.179,-0.181 4.913,-0.181 h 293.3 c 35.288,0 62.93,28.075 62.93,63.915 v 75.109 c 0,7.762 -6.293,14.053 -14.053,14.053 -7.76,0 -14.053,-6.292 -14.053,-14.053 v -75.109 c 0,-20.081 -15.297,-35.809 -34.824,-35.809 H 109.351 c -1.003,0 -1.903,0.032 -2.753,0.098 -18.542,1.419 -33.056,17.106 -33.056,35.712 v 174.652 c -0.002,7.76 -6.293,14.053 -14.055,14.053 z"
       id="path8" /></g><path
     style="fill:#d4a8b4"
     d="m 497.11779,222.26372 v 81.648 c 0,11.002 -4.503,21.007 -11.763,28.253 -7.246,7.26 -17.249,11.763 -28.253,11.763 -22.006,0 -40.015,-18.009 -40.015,-40.015 v -37.553 c -4.854,16.631 -20.275,28.885 -38.424,28.885 -18.149,0 -33.556,-12.254 -38.41,-28.885 v 14.83 c 0,11.002 -4.503,21.007 -11.748,28.267 -7.26,7.246 -17.264,11.748 -28.267,11.748 -22.019,0 -40.015,-18.009 -40.015,-40.015 v -22.935 c -2.434,8.329 -7.499,15.547 -14.225,20.696 -6.726,5.135 -15.125,8.203 -24.201,8.203 -14.52,0 -27.281,-7.837 -34.302,-19.486 v 36.245 c 0,11.002 -4.503,21.007 -11.763,28.253 -7.246,7.26 -17.25,11.763 -28.253,11.763 -22.006,0 -41.42,-18.009 -41.42,-40.015 l 0.294,-81.788 c 0,-26.254 20.289,-47.753 46.023,-49.723 15.21,0 29.406,0 29.406,0 h 265.469 c 27.552,-0.003 49.867,22.313 49.867,49.861 z"
     id="path12" /><g
     id="g18"
     transform="translate(45.589793,47.319717)"><path
       style="fill:#3c1146"
       d="m 411.513,310.66 c -29.814,0 -54.068,-24.254 -54.068,-54.068 v -0.497 c -7.409,3.777 -15.726,5.883 -24.372,5.883 -10.174,0 -19.891,-2.917 -28.21,-8.045 -2.687,6.696 -6.734,12.854 -12,18.13 -10.264,10.243 -23.829,15.875 -38.213,15.875 -25.22,0 -46.463,-17.357 -52.409,-40.753 -7.946,4.406 -16.809,6.702 -26.029,6.702 -7.017,0 -13.886,-1.401 -20.249,-4 v 6.705 c 0,14.407 -5.644,27.973 -15.889,38.199 -10.207,10.227 -23.772,15.869 -38.18,15.869 -30.068,0 -55.474,-24.76 -55.474,-54.068 l 0.294,-81.84 c 0,-33.156 25.917,-61.151 59.002,-63.683 0.357,-0.028 0.715,-0.041 1.074,-0.041 h 294.874 c 35.244,0 63.917,28.673 63.917,63.917 v 81.649 c 0,14.407 -5.644,27.973 -15.889,38.199 -10.206,10.225 -23.772,15.867 -38.179,15.867 z M 371.488,204.984 c 0.662,0 1.328,0.046 2,0.143 6.923,0.989 12.065,6.918 12.065,13.911 v 37.553 c 0,14.316 11.646,25.962 25.962,25.962 6.889,0 13.39,-2.712 18.304,-7.637 4.945,-4.934 7.656,-11.435 7.656,-18.325 v -81.649 c 0,-19.746 -16.066,-35.81 -35.81,-35.81 H 107.371 C 89.077,140.787 74.82,156.36 74.82,174.802 l -0.294,81.839 c 0,13.781 12.788,25.911 27.367,25.911 6.889,0 13.39,-2.712 18.304,-7.637 4.945,-4.934 7.656,-11.435 7.656,-18.325 v -36.246 c 0,-6.311 4.208,-11.85 10.288,-13.539 6.079,-1.693 12.542,0.88 15.8,6.286 4.716,7.826 13.249,12.687 22.267,12.687 5.696,0 11.113,-1.84 15.669,-5.319 4.423,-3.385 7.718,-8.172 9.265,-13.469 1.962,-6.712 8.565,-10.964 15.48,-9.971 6.923,0.991 12.063,6.92 12.063,13.911 v 22.935 c 0,14.316 11.646,25.962 25.962,25.962 6.887,0 13.401,-2.714 18.339,-7.642 4.909,-4.919 7.622,-11.431 7.622,-18.32 v -14.83 c 0,-6.993 5.142,-12.922 12.065,-13.911 6.91,-0.991 13.519,3.262 15.48,9.975 3.225,11.051 13.473,18.769 24.919,18.769 11.455,0 21.709,-7.718 24.935,-18.769 1.772,-6.059 7.323,-10.115 13.481,-10.115 z"
       id="path14" /><path
       style="fill:#3c1146"
       d="M 497.947,487.643 H 14.053 C 6.293,487.643 0,481.351 0,473.59 v -81.742 c 0,-29.575 24.062,-53.637 53.637,-53.637 h 283.875 c 7.76,0 14.053,6.292 14.053,14.053 0,7.762 -6.293,14.053 -14.053,14.053 H 53.637 c -14.078,0 -25.53,11.453 -25.53,25.53 v 67.689 h 455.787 v -67.689 c 0,-14.077 -11.452,-25.53 -25.53,-25.53 h -33.725 c -7.76,0 -14.053,-6.292 -14.053,-14.053 0,-7.761 6.293,-14.053 14.053,-14.053 h 33.725 c 29.575,0 53.637,24.062 53.637,53.637 v 81.742 c -10e-4,7.761 -6.293,14.053 -14.054,14.053 z"
       id="path16" /></g></g></svg>
