<?xml version="1.0" encoding="iso-8859-1"?>
<!-- Generator: Adobe Illustrator 19.0.0, SVG Export Plug-In . SVG Version: 6.00 Build 0)  -->
<svg version="1.1" id="Layer_1" xmlns="http://www.w3.org/2000/svg" xmlns:xlink="http://www.w3.org/1999/xlink" x="0px" y="0px"
	 viewBox="0 0 511.998 511.998" style="enable-background:new 0 0 511.998 511.998;" xml:space="preserve">
<path style="fill:#D4A8B4;" d="M430.676,430.435H81.322v-48.031c0-96.471,78.205-174.676,174.676-174.676l0,0
	c96.471,0,174.676,78.205,174.676,174.676v48.031H430.676z"/>
<g>
	<path style="fill:#3C1146;" d="M430.676,446.05H81.322c-8.624,0-15.615-6.992-15.615-15.615v-48.033
		c0-104.926,85.364-190.291,190.291-190.291s190.291,85.364,190.291,190.291v48.033C446.291,439.059,439.298,446.05,430.676,446.05z
		 M96.937,414.82H415.06v-32.418c0-87.707-71.355-159.061-159.061-159.061S96.937,294.696,96.937,382.402L96.937,414.82
		L96.937,414.82z"/>
	<path style="fill:#3C1146;" d="M256,223.166c-28.676,0-52.006-23.328-52.006-52.007s23.33-52.006,52.006-52.006
		s52.007,23.328,52.007,52.006S284.677,223.166,256,223.166z M256,150.384c-11.457,0-20.777,9.32-20.777,20.777
		s9.32,20.777,20.777,20.777c11.457,0,20.777-9.32,20.777-20.777S267.455,150.384,256,150.384z"/>
	<path style="fill:#3C1146;" d="M302.904,511.998h-93.807c-8.624,0-15.615-6.992-15.615-15.615s6.991-15.615,15.615-15.615h93.807
		c8.622,0,15.615,6.992,15.615,15.615S311.526,511.998,302.904,511.998z"/>
	<path style="fill:#3C1146;" d="M419.095,144.661c-0.447,0-0.895-0.02-1.348-0.058c-8.593-0.735-14.962-8.296-14.228-16.887
		c0.222-2.59,0.334-5.165,0.334-7.651c0-48.983-39.85-88.835-88.837-88.835c-8.622,0-15.615-6.992-15.615-15.615
		S306.393,0,315.016,0c66.203,0,120.067,53.86,120.067,120.065c0,3.371-0.151,6.841-0.447,10.312
		C433.938,138.514,427.114,144.661,419.095,144.661z"/>
	<path style="fill:#3C1146;" d="M364.861,170.393c-0.612,0-1.229-0.034-1.85-0.109c-8.565-1.009-14.687-8.772-13.677-17.337
		c0.281-2.387,0.423-4.792,0.423-7.15c0-33.347-27.129-60.478-60.476-60.478c-8.622,0-15.615-6.992-15.615-15.615
		s6.992-15.615,15.615-15.615c50.567,0,91.705,41.14,91.705,91.707c0,3.576-0.215,7.212-0.64,10.81
		C379.413,164.55,372.667,170.393,364.861,170.393z"/>
	<path style="fill:#3C1146;" d="M464.299,511.998h-83.275c-8.622,0-15.615-6.992-15.615-15.615V446.05H146.804v50.333
		c0,8.622-6.991,15.615-15.615,15.615H47.699c-8.624,0-15.615-6.992-15.615-15.615s6.991-15.615,15.615-15.615h67.876v-50.333
		c0-8.622,6.991-15.615,15.615-15.615h249.835c8.622,0,15.615,6.992,15.615,15.615v50.333h67.66c8.622,0,15.615,6.992,15.615,15.615
		S472.922,511.998,464.299,511.998z"/>
</g>
<g>
</g>
<g>
</g>
<g>
</g>
<g>
</g>
<g>
</g>
<g>
</g>
<g>
</g>
<g>
</g>
<g>
</g>
<g>
</g>
<g>
</g>
<g>
</g>
<g>
</g>
<g>
</g>
<g>
</g>
</svg>
