<?xml version="1.0" encoding="iso-8859-1"?>
<!-- Generator: Adobe Illustrator 19.0.0, SVG Export Plug-In . SVG Version: 6.00 Build 0)  -->
<svg version="1.1" id="Layer_1" xmlns="http://www.w3.org/2000/svg" xmlns:xlink="http://www.w3.org/1999/xlink" x="0px" y="0px"
	 viewBox="0 0 512.001 512.001" style="enable-background:new 0 0 512.001 512.001;" xml:space="preserve">
<path style="fill:#3C1146;" d="M155.408,479.894c-11.54,0-22.386-4.493-30.544-12.651l-80.107-80.105
	c-16.841-16.843-16.841-44.244,0-61.086L326.051,44.756c8.158-8.158,19.004-12.651,30.543-12.651
	c11.54,0,22.386,4.493,30.544,12.651l80.107,80.106c16.841,16.843,16.841,44.244,0,61.086l-61.641,61.641
	c-6.062,6.059-15.885,6.059-21.948,0c-6.06-6.06-6.06-15.887,0-21.948L445.297,164c4.739-4.739,4.739-12.452,0-17.193L365.19,66.701
	c-2.295-2.297-5.348-3.56-8.596-3.56c-3.247,0-6.299,1.263-8.594,3.56L66.705,347.997c-4.739,4.74-4.739,12.452,0,17.193
	l80.107,80.105c2.295,2.297,5.348,3.56,8.596,3.56c3.247,0,6.299-1.263,8.594-3.56l157.104-157.104
	c6.062-6.059,15.885-6.059,21.948,0c6.06,6.06,6.06,15.887,0,21.948L185.951,467.243
	C177.793,475.401,166.945,479.894,155.408,479.894z"/>
<path style="fill:#D4A8B4;" d="M70.616,391.047l-39.511,29.911c-9.409,7.714-14.92,18.62-15.53,30.749
	c-0.597,12.137,3.794,23.539,12.386,32.13c8.779,8.779,20.192,13.183,32.318,12.573c12.148-0.615,23.066-6.111,30.76-15.519
	l29.911-39.511L70.616,391.047z"/>
<path style="fill:#3C1146;" d="M58.069,511.987c-15.416,0-30.006-6.1-41.082-17.175C5.264,483.091-0.742,467.513,0.073,450.945
	c0.836-16.562,8.363-31.466,21.191-41.986c0.157-0.127,0.313-0.251,0.473-0.372l39.511-29.911c6.18-4.677,14.861-4.081,20.341,1.4
	l50.334,50.334c5.48,5.48,6.077,14.161,1.398,20.341l-29.911,39.511c-0.116,0.155-0.236,0.307-0.358,0.456
	c-10.492,12.828-25.403,20.356-41.99,21.194C60.055,511.962,59.062,511.987,58.069,511.987z M40.737,433.131
	c-5.934,4.957-9.276,11.644-9.665,19.358c-0.383,7.797,2.334,14.848,7.859,20.375c5.64,5.638,12.808,8.425,20.569,8.05
	c7.739-0.391,14.429-3.725,19.358-9.643l21.557-28.474l-31.212-31.213L40.737,433.131z"/>
<path style="fill:#D4A8B4;" d="M451.722,15.587c-12.148,0.615-23.066,6.111-30.76,15.519l-29.913,39.511l50.334,50.334
	l39.511-29.913c9.409-7.714,14.92-18.62,15.53-30.749c0.597-12.137-3.794-23.539-12.386-32.13
	C475.261,19.383,463.85,14.978,451.722,15.587z"/>
<path style="fill:#3C1146;" d="M441.389,136.471c-3.995,0-7.97-1.536-10.978-4.546l-50.334-50.334
	c-5.48-5.48-6.077-14.161-1.398-20.341L408.59,21.74c0.116-0.154,0.236-0.306,0.358-0.456c10.489-12.829,25.401-20.356,41.99-21.196
	c1.006-0.05,2-0.074,2.992-0.074c15.418,0,30.007,6.099,41.083,17.175c11.723,11.721,17.729,27.299,16.914,43.867
	c-0.836,16.562-8.363,31.466-21.191,41.986c-0.157,0.127-0.313,0.251-0.473,0.372l-39.511,29.911
	C447.965,135.435,444.67,136.471,441.389,136.471z M411.585,69.205l31.212,31.213l28.466-21.55
	c5.934-4.957,9.276-11.644,9.665-19.358c0.383-7.797-2.334-14.848-7.859-20.375c-5.638-5.636-12.795-8.43-20.569-8.05
	c-7.741,0.391-14.431,3.725-19.358,9.643L411.585,69.205z"/>
<g>
</g>
<g>
</g>
<g>
</g>
<g>
</g>
<g>
</g>
<g>
</g>
<g>
</g>
<g>
</g>
<g>
</g>
<g>
</g>
<g>
</g>
<g>
</g>
<g>
</g>
<g>
</g>
<g>
</g>
</svg>
